<mxfile host="app.diagrams.net" agent="Mozilla/5.0 (Macintosh; Intel Mac OS X 10_15_7) AppleWebKit/537.36 (KHTML, like Gecko) Chrome/134.0.0.0 Safari/537.36" version="26.1.1">
  <diagram name="Página-1" id="GubYrmFKT3-sNSX8hkCn">
    <mxGraphModel dx="1674" dy="761" grid="1" gridSize="10" guides="1" tooltips="1" connect="1" arrows="1" fold="1" page="1" pageScale="1" pageWidth="827" pageHeight="1169" math="0" shadow="0">
      <root>
        <mxCell id="0" />
        <mxCell id="1" parent="0" />
        <mxCell id="wKsuARSGAMIcVEpGxS6B-13" style="edgeStyle=orthogonalEdgeStyle;rounded=0;orthogonalLoop=1;jettySize=auto;html=1;entryX=0;entryY=0.5;entryDx=0;entryDy=0;" edge="1" parent="1" source="wKsuARSGAMIcVEpGxS6B-1" target="wKsuARSGAMIcVEpGxS6B-7">
          <mxGeometry relative="1" as="geometry" />
        </mxCell>
        <mxCell id="wKsuARSGAMIcVEpGxS6B-1" value="luchito" style="shape=umlActor;verticalLabelPosition=bottom;verticalAlign=top;html=1;outlineConnect=0;" vertex="1" parent="1">
          <mxGeometry x="310" y="110" width="30" height="60" as="geometry" />
        </mxCell>
        <mxCell id="wKsuARSGAMIcVEpGxS6B-5" value="" style="whiteSpace=wrap;html=1;aspect=fixed;" vertex="1" parent="1">
          <mxGeometry x="430" y="90" width="510" height="510" as="geometry" />
        </mxCell>
        <mxCell id="wKsuARSGAMIcVEpGxS6B-6" value="Aplicación" style="text;html=1;align=center;verticalAlign=middle;resizable=0;points=[];autosize=1;strokeColor=none;fillColor=none;" vertex="1" parent="1">
          <mxGeometry x="610" y="38" width="80" height="30" as="geometry" />
        </mxCell>
        <mxCell id="wKsuARSGAMIcVEpGxS6B-10" style="edgeStyle=orthogonalEdgeStyle;rounded=0;orthogonalLoop=1;jettySize=auto;html=1;" edge="1" parent="1" source="wKsuARSGAMIcVEpGxS6B-7" target="wKsuARSGAMIcVEpGxS6B-8">
          <mxGeometry relative="1" as="geometry" />
        </mxCell>
        <mxCell id="wKsuARSGAMIcVEpGxS6B-7" value="sistema cliente" style="rounded=1;whiteSpace=wrap;html=1;" vertex="1" parent="1">
          <mxGeometry x="610" y="110" width="120" height="60" as="geometry" />
        </mxCell>
        <mxCell id="wKsuARSGAMIcVEpGxS6B-12" value="" style="edgeStyle=orthogonalEdgeStyle;rounded=0;orthogonalLoop=1;jettySize=auto;html=1;" edge="1" parent="1" source="wKsuARSGAMIcVEpGxS6B-8" target="wKsuARSGAMIcVEpGxS6B-11">
          <mxGeometry relative="1" as="geometry" />
        </mxCell>
        <mxCell id="wKsuARSGAMIcVEpGxS6B-8" value="sistema Servidor" style="rounded=1;whiteSpace=wrap;html=1;" vertex="1" parent="1">
          <mxGeometry x="610" y="230" width="120" height="60" as="geometry" />
        </mxCell>
        <mxCell id="wKsuARSGAMIcVEpGxS6B-11" value="Base de datos" style="ellipse;whiteSpace=wrap;html=1;rounded=1;" vertex="1" parent="1">
          <mxGeometry x="595" y="350" width="150" height="150" as="geometry" />
        </mxCell>
      </root>
    </mxGraphModel>
  </diagram>
</mxfile>
